<svg width="43" height="43" viewBox="0 0 43 43" fill="none" xmlns="http://www.w3.org/2000/svg">
<path d="M21.5001 23.2917V3.58337L35.8334 10.75L21.5001 17.9167M36.8384 18.3143C37.7918 21.2528 37.881 24.4035 37.0954 27.3913C36.3098 30.3791 34.6824 33.0784 32.4068 35.1679C30.1313 37.2574 27.3033 38.6493 24.2595 39.1779C21.2157 39.7065 18.0841 39.3496 15.2373 38.1496C12.3904 36.9496 9.94825 34.9571 8.20125 32.4091C6.45425 29.8611 5.47598 26.8649 5.38282 23.7769C5.28967 20.6889 6.08555 17.6392 7.67578 14.9905C9.26601 12.3418 11.5836 10.2057 14.353 8.83633M14.3368 17.9115C13.439 19.1065 12.8545 20.5073 12.6366 21.986C12.4186 23.4648 12.5742 24.9746 13.0891 26.3779C13.6039 27.7812 14.4618 29.0333 15.5844 30.0202C16.707 31.0071 18.0587 31.6975 19.5164 32.0283C20.974 32.3591 22.4913 32.32 23.93 31.9144C25.3687 31.5088 26.683 30.7497 27.7532 29.7061C28.8234 28.6626 29.6155 27.3679 30.0573 25.94C30.4991 24.512 30.5765 22.9962 30.2826 21.5306" stroke="#0E4815" stroke-width="4" stroke-linecap="round" stroke-linejoin="round"/>
</svg>
