<svg width="43" height="43" viewBox="0 0 43 43" fill="none" xmlns="http://www.w3.org/2000/svg">
<path d="M32.2499 16.125H35.8333C36.7836 16.125 37.695 16.5026 38.367 17.1746C39.0391 17.8466 39.4166 18.758 39.4166 19.7084V39.4167L32.2499 32.25H21.4999C20.5496 32.25 19.6381 31.8725 18.9661 31.2005C18.2941 30.5285 17.9166 29.6171 17.9166 28.6667V26.875M25.0833 16.125C25.0833 17.0754 24.7057 17.9868 24.0337 18.6588C23.3617 19.3308 22.4503 19.7084 21.4999 19.7084H10.7499L3.58325 26.875V7.16671C3.58325 5.19587 5.19575 3.58337 7.16659 3.58337H21.4999C22.4503 3.58337 23.3617 3.9609 24.0337 4.63291C24.7057 5.30491 25.0833 6.21635 25.0833 7.16671V16.125Z" stroke="#0E4815" stroke-width="4" stroke-linecap="round" stroke-linejoin="round"/>
</svg>
