<svg width="43" height="43" viewBox="0 0 43 43" fill="none" xmlns="http://www.w3.org/2000/svg">
<path d="M5.375 12.5417V8.95833C5.375 8.00797 5.75253 7.09654 6.42453 6.42453C7.09654 5.75253 8.00797 5.375 8.95833 5.375H12.5417M30.4583 5.375H34.0417C34.992 5.375 35.9035 5.75253 36.5755 6.42453C37.2475 7.09654 37.625 8.00797 37.625 8.95833V12.5417M37.625 30.4583V34.0417C37.625 34.992 37.2475 35.9035 36.5755 36.5755C35.9035 37.2475 34.992 37.625 34.0417 37.625H30.4583M12.5417 37.625H8.95833C8.00797 37.625 7.09654 37.2475 6.42453 36.5755C5.75253 35.9035 5.375 34.992 5.375 34.0417V30.4583M23.2917 21.5C23.2917 22.4895 22.4895 23.2917 21.5 23.2917C20.5105 23.2917 19.7083 22.4895 19.7083 21.5C19.7083 20.5105 20.5105 19.7083 21.5 19.7083C22.4895 19.7083 23.2917 20.5105 23.2917 21.5ZM8.95833 21.5C8.95833 21.5 13.4375 12.5417 21.5 12.5417C29.5625 12.5417 34.0417 21.5 34.0417 21.5C34.0417 21.5 29.5625 30.4583 21.5 30.4583C13.4375 30.4583 8.95833 21.5 8.95833 21.5Z" stroke="#0E4815" stroke-width="4" stroke-linecap="round" stroke-linejoin="round"/>
</svg>
