<svg width="43" height="43" viewBox="0 0 43 43" fill="none" xmlns="http://www.w3.org/2000/svg">
<path d="M35.8333 5.37499V12.5417M39.4166 8.95832H32.25M7.16665 30.4583V34.0417M8.95831 32.25H5.37498M17.8037 27.7708C17.6437 27.1508 17.3205 26.5849 16.8677 26.1321C16.4149 25.6793 15.8491 25.3562 15.229 25.1962L4.23716 22.3618C4.04963 22.3086 3.88458 22.1956 3.76705 22.0401C3.64953 21.8846 3.58594 21.6949 3.58594 21.5C3.58594 21.3051 3.64953 21.1154 3.76705 20.9599C3.88458 20.8044 4.04963 20.6914 4.23716 20.6382L15.229 17.802C15.8489 17.6422 16.4146 17.3193 16.8673 16.8668C17.3201 16.4144 17.6434 15.8489 17.8037 15.2292L20.6381 4.23729C20.6908 4.04902 20.8036 3.88315 20.9594 3.765C21.1151 3.64684 21.3053 3.58289 21.5008 3.58289C21.6963 3.58289 21.8864 3.64684 22.0422 3.765C22.1979 3.88315 22.3108 4.04902 22.3635 4.23729L25.1961 15.2292C25.356 15.8492 25.6792 16.4151 26.132 16.8679C26.5848 17.3206 27.1507 17.6438 27.7707 17.8038L38.7626 20.6364C38.9516 20.6886 39.1183 20.8013 39.2371 20.9573C39.3559 21.1133 39.4202 21.3039 39.4202 21.5C39.4202 21.6961 39.3559 21.8867 39.2371 22.0427C39.1183 22.1987 38.9516 22.3114 38.7626 22.3636L27.7707 25.1962C27.1507 25.3562 26.5848 25.6793 26.132 26.1321C25.6792 26.5849 25.356 27.1508 25.1961 27.7708L22.3617 38.7627C22.309 38.951 22.1961 39.1168 22.0404 39.235C21.8846 39.3532 21.6945 39.4171 21.499 39.4171C21.3035 39.4171 21.1133 39.3532 20.9576 39.235C20.8018 39.1168 20.689 38.951 20.6363 38.7627L17.8037 27.7708Z" stroke="#0E4815" stroke-width="4" stroke-linecap="round" stroke-linejoin="round"/>
</svg>
