<svg width="32" height="38" viewBox="0 0 32 38" fill="none" xmlns="http://www.w3.org/2000/svg">
<path d="M26.5783 20.1815C26.5345 15.4276 30.5707 13.1148 30.7552 13.0071C28.4694 9.75766 24.9263 9.31369 23.6813 9.27829C20.7056 8.97296 17.8191 11.0144 16.3033 11.0144C14.7571 11.0144 12.4229 9.30779 9.90705 9.35794C6.66961 9.40661 3.64095 11.2341 1.97987 14.072C-1.44818 19.8585 1.10848 28.3618 4.39282 33.0391C6.03574 35.3297 7.95551 37.8874 10.4683 37.7974C12.9266 37.6986 13.8449 36.2693 16.8116 36.2693C19.751 36.2693 20.6133 37.7974 23.176 37.7399C25.8144 37.6986 27.4754 35.4389 29.0609 33.1276C30.9595 30.5021 31.7219 27.9164 31.7522 27.7836C31.6901 27.763 26.6283 25.8794 26.5783 20.1815Z" fill="white"/>
<path d="M21.7373 6.20144C23.0595 4.58926 23.9642 2.39594 23.713 0.170166C21.7993 0.252766 19.406 1.46079 18.0279 3.03757C16.8085 4.42702 15.7193 6.70441 16.0007 8.84611C18.1504 9.00246 20.3576 7.78854 21.7373 6.20144Z" fill="white"/>
</svg>
